Coordinates
version=1
nRows=19
nColumns=34
inDegrees=yes

Units are S.I. units (second, meters, Newtons, ...)
If the header above contains a line with 'inDegrees', this indicates whether rotational values are in degrees (yes) or radians (no).

endheader
time	pelvis_tilt	pelvis_list	pelvis_rotation	pelvis_tx	pelvis_ty	pelvis_tz	hip_flexion_r	hip_adduction_r	hip_rotation_r	knee_angle_r	ankle_angle_r	subtalar_angle_r	mtp_angle_r	hip_flexion_l	hip_adduction_l	hip_rotation_l	knee_angle_l	ankle_angle_l	subtalar_angle_l	mtp_angle_l	lumbar_extension	lumbar_bending	lumbar_rotation	arm_flex_r	arm_add_r	arm_rot_r	elbow_flex_r	pro_sup_r	arm_flex_l	arm_add_l	arm_rot_l	elbow_flex_l	pro_sup_l
      3.30000000	      0.60323519	      0.92921399	     -5.04722867	     -0.48747865	      0.95777870	     -0.15096802	     -2.11798516	     -1.29218529	      1.33355990	      0.00000000	      3.76226648	     -2.45068129	      0.00000000	     -4.21471837	     -0.07403702	     -7.35736017	      0.90077882	      5.78647885	     -0.07307731	      0.00000000	      0.67444785	     -2.33423362	     -3.27118265	     -9.62247449	    -19.14019032	     10.75183308	     84.19514267	     91.32822838	     -4.98899543	     -7.04837568	      2.08249841	     22.79197315	     74.83643266
      3.31666670	      0.85267909	      0.92248076	     -4.84175525	     -0.47807717	      0.96084878	     -0.15339057	     -2.62416257	     -1.34386380	      1.23099979	      0.00000000	      3.87738338	     -2.42420201	      0.00000000	     -4.63280608	     -0.04052157	     -7.34583930	      1.00819737	      6.14932216	      0.09871836	      0.00000000	      0.23040027	     -2.11333758	     -2.74670734	    -10.01490427	    -17.58817578	     10.25681805	     78.37071265	     91.30804222	     -5.10809389	     -7.05754576	      2.33523456	     23.28354343	     74.98689124
      3.33333330	      0.95471277	      0.90021670	     -4.41430767	     -0.47582755	      0.95658159	     -0.15357412	     -3.07448789	     -1.35545772	      1.09182676	      0.00000000	      4.24238023	     -2.64837487	      0.00000000	     -4.81674598	     -0.05464840	     -7.10361395	      1.25613328	      6.61265103	      0.27882306	      0.00000000	      0.20241405	     -1.82972451	     -2.81310701	     -9.85879456	    -16.10114221	      9.83858496	     72.08741322	     91.26916888	     -5.66443988	     -7.12358921	      2.77751174	     23.95974264	     75.29137453
      3.35000000	      1.10965638	      0.91252051	     -4.11317145	     -0.47497246	      0.95999048	     -0.15336962	     -3.56041151	     -1.36575110	      0.93076663	      0.00000000	      4.44761474	     -2.87698251	      0.00000000	     -5.19292242	     -0.01145631	     -6.98309657	      1.29284244	      6.91286480	      0.47249913	      0.00000000	      0.12628914	     -1.64272716	     -2.78246514	     -9.46830873	    -14.62600566	      9.51821822	     65.48183149	     91.15520689	     -5.94440153	     -7.23301544	      3.29134755	     24.53273707	     75.65665107
      3.36666670	      1.26129733	      0.90463018	     -3.79787801	     -0.47298530	      0.96010398	     -0.15383820	     -4.01312343	     -1.35988945	      0.82843399	      0.00000000	      4.56820073	     -3.12795938	      0.00000000	     -5.56922078	      0.01153997	     -6.81916074	      1.26170228	      7.44653160	      0.67437508	      0.00000000	      0.09098819	     -1.45644002	     -2.78255113	     -9.05677368	    -13.27474799	      9.22618019	     59.05043186	     90.98517873	     -6.03242803	     -7.38371819	      3.89030519	     25.00418310	     76.06253046
      3.38333330	      1.21894824	      0.89720744	     -3.44401957	     -0.47293883	      0.95184204	     -0.15361410	     -4.18846518	     -1.30308798	      0.61252177	      0.00000000	      4.63044154	     -3.71595785	      0.00000000	     -5.61655331	     -0.03366775	     -6.66760869	      1.34579023	      7.90819883	      0.72005980	      0.00000000	      0.28325595	     -1.29114899	     -3.13743674	     -8.04400887	    -12.04440629	      9.59439856	     52.61138976	     90.77113987	     -6.29414288	     -7.74734098	      4.70711787	     25.51969570	     76.75809721
      3.40000000	      1.24338918	      0.80557016	     -3.34962517	     -0.47405448	      0.95270525	     -0.15368849	     -4.34211643	     -1.19352837	      0.71383354	      0.00000000	      4.98727605	     -3.87235112	      0.00000000	     -5.88030078	     -0.11146906	     -6.57984172	      1.14514124	      8.15462695	      0.81215849	      0.00000000	      0.34731676	     -0.94936160	     -2.93672841	     -7.34800850	    -10.94307620	      9.11899482	     46.74512295	     90.48518047	     -6.22777463	     -7.78366805	      5.22498578	     25.75630832	     77.17478009
      3.41666670	      1.33710311	      0.77923316	     -3.11480636	     -0.47483377	      0.95642338	     -0.15488076	     -4.58527984	     -1.15519894	      0.77369206	      0.00000000	      4.98988746	     -4.22892159	      0.00000000	     -6.06558331	     -0.13699977	     -6.42367416	      1.16958197	      8.16905411	      0.64752267	      0.00000000	      0.32311759	     -0.68592894	     -2.94394190	     -6.32212057	     -9.76662090	      8.71853447	     40.90917716	     90.19519736	     -6.10951055	     -7.91414319	      5.84820825	     25.66546542	     77.58093542
      3.43333330	      1.30859850	      0.77772719	     -2.82672341	     -0.47443279	      0.95858948	     -0.15602338	     -4.59873959	     -1.13913451	      0.70934365	      0.00000000	      5.06128462	     -4.35652371	      0.00000000	     -6.07248337	     -0.12574996	     -6.13599129	      1.10281178	      8.23111874	      0.65978112	      0.00000000	      0.34108343	     -0.46338329	     -2.95153705	     -5.28614975	     -8.72421611	      8.43361428	     35.34661728	     89.87532635	     -5.86809114	     -7.92940900	      6.57401436	     25.30399060	     77.96783267
      3.45000000	      1.29832743	      0.83437019	     -2.61034443	     -0.47965287	      0.96147917	     -0.15581823	     -4.51244801	     -1.18079312	      0.65353671	      0.00000000	      5.11301123	     -4.22757569	      0.00000000	     -5.88718273	     -0.05809964	     -5.92254127	      1.01690279	      7.99767160	      0.47670721	      0.00000000	      0.13942821	     -0.38335804	     -2.75020588	     -4.20988269	     -7.77872023	      8.20347727	     30.49449910	     89.56332214	     -5.27244762	     -8.02907371	      7.24353187	     24.84277859	     78.25813501
      3.46666670	      1.29298634	      0.90259930	     -2.36229267	     -0.47972213	      0.95900696	     -0.15692241	     -4.43719522	     -1.27717802	      0.48896340	      0.00000000	      5.13729340	     -4.17551788	      0.00000000	     -5.74232422	      0.03993799	     -5.68759775	      0.96144001	      8.14117755	      0.69598462	      0.00000000	     -0.08776722	     -0.32086643	     -2.64181025	     -3.31926038	     -6.99228528	      7.94749883	     26.56237969	     89.25351437	     -4.78441284	     -8.02399468	      7.87492903	     24.57603750	     78.46788417
      3.48333330	      1.30876696	      0.92484949	     -2.33539388	     -0.48629054	      0.96157014	     -0.15588791	     -4.17335484	     -1.30702311	      0.25500130	      0.00000000	      5.13520681	     -4.25356379	      0.00000000	     -5.57409763	      0.08591634	     -5.60704440	      0.77569983	      8.02237023	      0.74867179	      0.00000000	     -0.45358977	     -0.22124593	     -2.37929405	     -2.50811884	     -6.35898899	      7.73114951	     23.62794378	     88.99106975	     -4.21017110	     -7.99667132	      8.39374675	     24.39887948	     78.59171774
      3.50000000	      1.26121655	      0.95265197	     -2.34367925	     -0.48719260	      0.96064436	     -0.15614930	     -3.96097294	     -1.33784321	      0.29284612	      0.00000000	      5.11377337	     -4.22634465	      0.00000000	     -5.34867992	      0.12705511	     -5.58352785	      0.67879668	      7.95907378	      0.78776234	      0.00000000	     -0.81554863	     -0.05919153	     -2.47544676	     -2.56729008	     -6.22783968	      7.74071238	     23.47190891	     88.98245208	     -4.05772389	     -7.94191961	      8.42090540	     24.42728333	     78.59630395
      3.51666670	      1.52065581	      0.93826748	     -2.28170982	     -0.48635012	      0.96105660	     -0.15576201	     -4.14361880	     -1.29730974	      0.19625247	      0.00000000	      4.93294002	     -4.24772209	      0.00000000	     -5.39938760	      0.07163816	     -5.54594301	      0.82187386	      7.61540398	      0.75835462	      0.00000000	     -1.36617090	     -0.01221708	     -2.53118152	     -1.07131060	     -5.38551750	      7.03995051	     19.48923769	     88.48567147	     -3.53369530	     -7.96525263	      9.40071608	     24.13804004	     78.69677652
      3.53333330	      1.50239789	      0.96650083	     -2.32593188	     -0.48414366	      0.96284726	     -0.15594684	     -4.07419539	     -1.32358113	      0.16241939	      0.00000000	      4.83143163	     -4.21145526	      0.00000000	     -5.27617947	      0.08671677	     -5.51923191	      0.80559203	      7.56853208	      0.79151384	      0.00000000	     -1.60599896	      0.06292564	     -2.52468465	     -1.18473002	     -5.24736889	      7.04735368	     19.35758968	     88.47365631	     -3.54835834	     -7.83925106	      9.44893356	     24.15048234	     78.69607079
      3.55000000	      1.62279709	      0.91361951	     -2.37861492	     -0.48243042	      0.96127564	     -0.15622572	     -4.19693210	     -1.29422805	     -0.00464116	      0.00000000	      4.43108321	     -4.04930533	      0.00000000	     -5.40216893	      0.02347547	     -5.48665664	      0.74113067	      7.51903981	      0.87806518	      0.00000000	     -1.74812833	      0.13756159	     -2.36810357	     -1.20512075	     -5.07777560	      6.92348671	     18.72066483	     88.38128846	     -3.50131896	     -7.63844095	      9.62569932	     24.26649820	     78.67829171
      3.56666670	      1.59344289	      0.93944026	     -2.41070536	     -0.48225631	      0.96386273	     -0.15599607	     -4.14325299	     -1.34022397	     -0.02069912	      0.00000000	      4.44056765	     -4.04506337	      0.00000000	     -5.42554671	      0.05134137	     -5.49083178	      0.69317255	      7.54768250	      0.87666091	      0.00000000	     -1.85182477	      0.21238169	     -2.38209628	     -1.28947907	     -4.99211656	      6.91610886	     18.62477880	     88.37095376	     -3.54117572	     -7.59244844	      9.65348227	     24.25852763	     78.67602839
      3.58333330	      1.60156673	      0.91487453	     -2.48437795	     -0.48285917	      0.96709097	     -0.15542970	     -4.13937862	     -1.30817215	     -0.03496177	      0.00000000	      4.41683170	     -4.00903761	      0.00000000	     -5.51801951	      0.01783815	     -5.45788208	      0.64673465	      7.56343844	      0.90510539	      0.00000000	     -1.85276959	      0.18481214	     -2.36270861	     -1.25527637	     -4.85129869	      6.89840513	     18.54654970	     88.35418181	     -3.57289327	     -7.43072669	      9.71004522	     24.27705509	     78.67415638
      3.60000000	      1.63864944	      0.93322870	     -2.41094511	     -0.48262951	      0.96690109	     -0.15581037	     -4.18944424	     -1.32384348	     -0.04754165	      0.00000000	      4.34184746	     -3.95295576	      0.00000000	     -5.61685389	      0.03530614	     -5.49976639	      0.61174464	      7.53725532	      0.90975343	      0.00000000	     -1.83560607	      0.22966345	     -2.33983096	     -1.24169560	     -4.72507364	      6.87649041	     18.46743455	     88.33585310	     -3.63191724	     -7.32510691	      9.76108000	     24.27967933	     78.67079000
